<svg width="124" height="38" viewBox="0 0 124 38" fill="none" xmlns="http://www.w3.org/2000/svg">
<path d="M20.5579 0C26.248 0.0191147 32.1217 1.28068 38.1586 3.80382L38.4441 3.91851L38.5461 4.18612V4.20523C39.0355 5.6006 39.4638 6.99598 39.8105 8.39135C40.1572 9.78672 40.4428 11.1821 40.6467 12.5775C40.9322 14.4125 41.0954 16.2284 41.1362 18.0634V20.2042C41.0138 24.83 40.1572 29.4557 38.5461 34.0815L38.4441 34.3491L38.1586 34.4638C32.448 36.834 26.7171 38 21.0066 38C20.8638 38 20.7211 38 20.5579 38V36.7002C20.7211 36.7002 20.8638 36.7002 21.0066 36.7002C26.4316 36.7002 31.877 35.6107 37.3224 33.3934C39.6882 26.5121 40.3408 19.6308 39.2803 12.7495C39.0763 11.4115 38.7908 10.0352 38.4441 8.67807C38.1382 7.4165 37.7507 6.13581 37.3224 4.87425C31.5507 2.50402 25.9625 1.31891 20.5579 1.2998V0ZM3.81382 3.82294C9.15724 1.26157 14.7046 0 20.4355 0C20.4763 0 20.5171 0 20.5579 0V1.2998C20.5171 1.2998 20.4763 1.2998 20.4355 1.2998C14.9901 1.2998 9.74868 2.48491 4.67039 4.87425C2.61053 9.46177 1.44803 14.1258 1.38684 18.8853C1.30526 23.6066 2.34539 28.4427 4.65 33.3742C9.95263 35.5342 15.2553 36.6429 20.5579 36.7002V38C14.9901 37.9427 9.42237 36.7767 3.85461 34.4638L3.4875 34.1388C1.12171 29.169 0.0203947 24.2757 0 19.4779V19.1338C0 19.0382 0 18.9618 0 18.8662C0.0611842 13.8773 1.30526 8.96479 3.4875 4.14789L3.81382 3.82294Z" fill="#003399"/>
<path fill-rule="evenodd" clip-rule="evenodd" d="M20.9249 29.6085C20.6394 25.9576 20.823 22.1538 19.6605 18.6749C18.5795 15.4254 14.4802 13.5713 14.3986 9.99681C14.317 7.20607 16.5809 3.97569 20.823 3.97569C24.7999 3.95657 27.2677 6.67086 27.5532 9.69098C27.8999 13.189 23.3723 15.5401 22.1894 18.866C20.9657 22.2684 21.3124 26.034 20.9249 29.6085Z" fill="#003399"/>
<path fill-rule="evenodd" clip-rule="evenodd" d="M22.495 28.7294C22.3318 25.5564 22.3318 22.5171 23.27 19.822C24.3101 16.7636 26.472 14.1831 29.7759 13.3421C32.0397 12.7686 35.3641 15.2536 34.8338 17.7958C34.3851 19.8411 32.2029 22.2495 28.695 22.5171C27.0634 22.6509 26.37 23.8743 25.3503 24.5815C29.9187 24.161 32.8759 22.4789 34.9358 20.7204C35.2417 22.2113 35.4456 24.7153 34.2016 25.5755C31.7542 27.2002 29.4904 25.8813 26.6147 26.6459C25.0035 27.0855 24.0042 28.0413 22.495 28.7294Z" fill="#003399"/>
<path fill-rule="evenodd" clip-rule="evenodd" d="M19.3752 28.7294C19.5587 25.5564 19.5383 22.5171 18.6206 19.822C17.5804 16.7636 15.4186 14.1831 12.1146 13.3421C9.85081 12.7686 6.50608 15.2536 7.05673 17.7958C7.50542 19.8411 9.68766 22.2495 13.1956 22.5171C14.8067 22.6509 15.5206 23.8743 16.5403 24.5815C11.9515 24.161 9.01463 22.4789 6.95476 20.7204C6.64884 22.2113 6.44489 24.7153 7.68897 25.5755C10.1363 27.2002 12.4002 25.8813 15.2758 26.6459C16.887 27.0855 17.8659 28.0413 19.3752 28.7294Z" fill="#003399"/>
<path fill-rule="evenodd" clip-rule="evenodd" d="M30.2451 33.4503V32.9342L30.653 32.8386L30.2451 32.2652V31.3095L32.0806 33.6988L31.428 33.8517L30.9793 33.2592L30.2451 33.4503ZM30.2451 31.3095V32.2652L29.9595 31.8829L29.8372 33.0298L30.2451 32.9342V33.4503L29.776 33.5459L29.6944 34.2531L29.0418 34.406L29.4701 31.2903L30.1227 31.1374L30.2451 31.3095ZM24.1674 35.1133V34.6163H24.3102C24.5345 34.5972 24.6773 34.5781 24.7385 34.559C24.8201 34.5398 24.9016 34.4825 24.9424 34.4252C25.0036 34.3487 25.024 34.2722 25.024 34.1767C25.0036 34.0811 24.9832 34.0046 24.922 33.9473C24.8813 33.89 24.7997 33.8517 24.7181 33.8326C24.6365 33.8135 24.453 33.8135 24.1674 33.8326V33.3356C24.3306 33.3356 24.4326 33.3165 24.4734 33.3165C24.5753 33.2974 24.6569 33.24 24.7181 33.1827C24.7793 33.1254 24.7997 33.0489 24.7793 32.9533C24.7793 32.8578 24.7385 32.7813 24.6773 32.7431C24.6365 32.6857 24.5549 32.6475 24.4326 32.6475C24.3918 32.6475 24.3102 32.6475 24.1674 32.6666V32.1696C24.3918 32.1505 24.5549 32.1505 24.6569 32.1696C24.7793 32.1696 24.9016 32.2079 25.0036 32.2652C25.1056 32.3034 25.1872 32.3799 25.2688 32.4755C25.3299 32.571 25.3707 32.6857 25.3911 32.8195C25.4115 32.9533 25.3707 33.0871 25.3095 33.2018C25.2484 33.3165 25.1464 33.4121 25.0036 33.4885C25.2076 33.5268 25.3707 33.6032 25.4727 33.7179C25.5951 33.8326 25.6563 33.9664 25.6766 34.1384C25.6766 34.2722 25.6562 34.406 25.6155 34.5399C25.5543 34.6737 25.4727 34.7692 25.3707 34.8648C25.2484 34.9413 25.126 34.9986 24.9628 35.0368C24.8609 35.0559 24.5957 35.0751 24.2082 35.1133H24.1674ZM28.022 33.5077L28.6543 33.5841C28.6135 33.9091 28.5115 34.1767 28.328 34.3678C28.1444 34.5398 27.8793 34.6737 27.553 34.731C27.1451 34.7883 26.778 34.7119 26.472 34.5016C26.1457 34.2722 25.9622 33.9473 25.8602 33.4885C25.7786 33.0107 25.8398 32.6093 26.0641 32.3034C26.2681 31.9976 26.5944 31.8064 27.0227 31.73C27.4102 31.6726 27.7161 31.73 28.0016 31.902C28.1648 31.9976 28.3076 32.1505 28.4095 32.3799L27.8181 32.6093C27.7569 32.4755 27.6549 32.3608 27.5326 32.3034C27.3898 32.227 27.247 32.2079 27.0839 32.227C26.8595 32.2652 26.6964 32.3799 26.574 32.5519C26.4516 32.7431 26.4312 32.9916 26.4924 33.3356C26.574 33.6988 26.6964 33.9473 26.8595 34.0811C27.0227 34.2149 27.2266 34.2722 27.451 34.234C27.6141 34.1958 27.7365 34.1193 27.8385 34.0046C27.9405 33.8899 28.0016 33.7179 28.022 33.5077ZM24.1674 32.1696V32.6666C24.0859 32.6666 24.0043 32.6857 23.9023 32.6857L23.5352 32.724L23.5964 33.393L24.0247 33.3547C24.0655 33.3547 24.1266 33.3547 24.1674 33.3356V33.8326C24.1674 33.8326 24.1674 33.8326 24.147 33.8326L23.6576 33.8708L23.7188 34.6545L24.1674 34.6163V35.1133L23.1477 35.2089L22.8622 32.2843L24.1062 32.1887C24.1266 32.1696 24.147 32.1696 24.1674 32.1696ZM20.2313 34.1002V33.6032C20.374 33.6032 20.4556 33.5841 20.5168 33.565C20.5984 33.5459 20.6595 33.4885 20.7207 33.4312C20.7615 33.3547 20.7819 33.2783 20.7819 33.2018C20.8023 33.0871 20.7615 33.0107 20.7003 32.9342C20.6391 32.8578 20.5576 32.8195 20.4556 32.8004C20.3944 32.8004 20.3332 32.7813 20.2313 32.7813V32.2843C20.5372 32.2843 20.7207 32.3034 20.8227 32.3417C21.0063 32.3799 21.149 32.4755 21.2714 32.6284C21.3938 32.7813 21.4549 32.9724 21.4345 33.2018C21.4345 33.3739 21.3938 33.5268 21.3326 33.6606C21.251 33.7753 21.1694 33.8708 21.0674 33.9473C20.9451 34.0046 20.8431 34.0429 20.7207 34.0811C20.5984 34.1002 20.4352 34.1002 20.2313 34.1002ZM20.2313 32.2843V32.7813C20.1701 32.7813 20.0885 32.7813 19.9865 32.7813L19.6806 32.7622V33.6032H20.0069C20.0885 33.6032 20.1701 33.6032 20.2313 33.6032V34.1002C20.1905 34.1002 20.1293 34.1002 20.0681 34.1002H19.6602L19.6398 35.2089L19.0076 35.1897L19.0688 32.2652L20.0681 32.2843C20.1293 32.2843 20.1905 32.2843 20.2313 32.2843ZM14.3372 33.8135V32.9151C14.5207 32.9533 14.6431 32.9533 14.7043 32.9533C14.7859 32.9342 14.847 32.9151 14.9082 32.8578C14.949 32.8004 14.9898 32.7431 15.0102 32.6475C15.0306 32.5519 15.0102 32.4755 14.9694 32.399C14.9286 32.3225 14.847 32.2843 14.7451 32.2461C14.7043 32.227 14.5615 32.2079 14.3372 32.1696V31.6726L14.6023 31.7109C14.9286 31.7682 15.153 31.8256 15.2957 31.902C15.4385 31.9785 15.5405 32.0932 15.6016 32.2461C15.6628 32.3799 15.6832 32.5519 15.6424 32.724C15.6016 32.9342 15.4997 33.1062 15.3365 33.2209C15.1938 33.3356 14.9694 33.393 14.6839 33.393C14.8063 33.4885 14.9082 33.5841 14.9694 33.6797C15.051 33.7944 15.1326 33.9664 15.2345 34.2149L15.4997 34.8457L14.7655 34.7119L14.4391 34.0046C14.3984 33.9473 14.378 33.8708 14.3372 33.8135ZM16.1319 31.9976L16.7438 32.0549L16.601 33.6415C16.5806 33.8899 16.5806 34.062 16.5806 34.1193C16.601 34.2531 16.6622 34.3487 16.7438 34.4252C16.8457 34.5207 16.9681 34.559 17.1516 34.5781C17.3352 34.5972 17.478 34.559 17.5595 34.5016C17.6615 34.4443 17.7227 34.3678 17.7635 34.2722C17.7839 34.1767 17.8043 34.0046 17.8247 33.7753L17.9674 32.1505L18.5997 32.2079L18.4569 33.737C18.4365 34.1002 18.3957 34.3487 18.3345 34.4825C18.2938 34.6163 18.2122 34.7501 18.1306 34.8266C18.0286 34.9221 17.8859 34.9986 17.7227 35.0368C17.5799 35.0942 17.376 35.0942 17.1313 35.0751C16.8253 35.0559 16.601 34.9986 16.4582 34.9221C16.3155 34.8457 16.1931 34.7501 16.1115 34.6545C16.0299 34.5398 15.9891 34.4252 15.9688 34.3105C15.9484 34.1384 15.9484 33.8899 15.9688 33.565L16.1319 31.9976ZM11.176 32.8578L11.2984 32.3799L12.624 32.7048L12.2977 33.8326C12.1345 33.9282 11.9306 33.9855 11.6451 34.0046C11.3799 34.0238 11.1352 34.0046 10.8905 33.9473C10.5641 33.8708 10.299 33.737 10.1155 33.565C9.91152 33.3739 9.78915 33.1445 9.72796 32.896C9.68718 32.6284 9.68717 32.3608 9.76875 32.0932C9.85033 31.8064 9.9931 31.558 10.197 31.3477C10.3806 31.1565 10.6253 31.0419 10.9109 30.9845C11.1352 30.9272 11.4003 30.9463 11.6859 31.0227C12.053 31.1183 12.3385 31.2521 12.5016 31.4624C12.6648 31.6535 12.7464 31.902 12.726 32.1696L12.0938 32.1314C12.0938 31.9785 12.053 31.8447 11.951 31.73C11.849 31.6344 11.7266 31.5388 11.5431 31.5006C11.278 31.4433 11.0536 31.4624 10.8497 31.5771C10.6457 31.6918 10.503 31.9211 10.401 32.227C10.299 32.571 10.3194 32.8386 10.4214 33.0489C10.5438 33.2592 10.7273 33.393 10.972 33.4503C11.1148 33.4885 11.2372 33.4885 11.3799 33.4885C11.5227 33.4694 11.6451 33.4312 11.7674 33.393L11.8694 33.0298L11.176 32.8578ZM14.3372 31.6726L13.2766 31.5006L12.7464 34.3869L13.3582 34.4825L13.5826 33.2783L13.7253 33.2974C13.8681 33.3165 13.9701 33.3547 14.0313 33.3739C14.0924 33.4121 14.1332 33.4694 14.1944 33.5268C14.2148 33.5841 14.276 33.6797 14.3372 33.8135V32.9151C14.276 32.9151 14.2148 32.896 14.1332 32.896L13.6845 32.8195L13.8069 32.0932L14.2964 32.1696C14.3168 32.1696 14.3372 32.1696 14.3372 32.1696V31.6726Z" fill="#003399"/>
<path fill-rule="evenodd" clip-rule="evenodd" d="M111.539 28.099V22.7087H114.068V13.2278L111.539 17.9683V6.13627H121.471L124 33.3938H114.068V28.099H111.539ZM111.539 6.13627V17.9683L109.01 22.7087H111.539V28.099H106.767L104.809 33.1071H98.6497V26.8757L105.523 12.9793H104.116L108.031 6.13627H111.539ZM98.6497 15.2157L101.729 8.37269L98.6497 6.76705V15.2157ZM74.1556 12.597C74.2984 11.8133 74.2984 11.0487 74.1556 10.3224V12.597ZM98.6497 6.76705V15.2157L98.2418 16.1333C92.1642 12.0618 83.1905 15.7701 82.6806 20.0709C82.1708 24.5628 85.8214 28.1946 95.1418 25.4803L91.9399 33.5085C79.6418 34.7892 74.8695 30.2208 74.1556 24.8878V21.8677C74.3392 20.4723 74.7267 19.1151 75.257 17.8536C81.3142 3.74693 91.1445 6.91997 94.8767 6.65237L95.4274 5.08496L98.6497 6.76705ZM98.6497 26.8757L95.5701 33.1071H98.6497V26.8757ZM63.1017 32.9351C69.6892 31.7117 76.1543 24.2952 69.6688 18.3888C72.1978 17.1272 73.7681 14.8526 74.1556 12.597V10.3224C73.707 7.97128 71.7695 6.05981 68.1188 6.00247L63.1017 5.90689V11.1443H65.182C67.405 11.1443 67.1195 16.5347 64.3458 16.5347H63.1017V20.6634C66.0997 21.1986 65.0392 25.098 63.1017 26.3023V32.9351ZM74.1556 21.8677V24.8878C74.0333 23.8938 74.0333 22.8807 74.1556 21.8677ZM54.4135 5.73486L50.355 13.1131L52.1701 12.9793L47.2754 33.1071H61.2866C61.8984 33.1071 62.4899 33.0497 63.1017 32.9351V26.3023C62.755 26.5316 62.3675 26.6654 61.98 26.6654H56.9425L58.6149 20.6061H62.3879C62.653 20.6061 62.8978 20.6252 63.1017 20.6634V16.5347H59.5938L61.001 11.1443H63.1017V5.90689L54.4135 5.73486Z" fill="#003399"/>
</svg>
