<svg width="40" height="40" viewBox="0 0 40 40" fill="none" xmlns="http://www.w3.org/2000/svg">
<rect width="40" height="40" rx="20" fill="url(#paint0_linear_277_4488)"/>
<path d="M29.1181 18.0884H22.5003V11.4706C22.5003 10.6586 21.8417 10 21.0297 10H19.5591C18.747 10 18.0884 10.6586 18.0884 11.4706V18.0884H11.4706C10.6586 18.0884 10 18.747 10 19.5591V21.0297C10 21.8417 10.6586 22.5003 11.4706 22.5003H18.0884V29.1181C18.0884 29.9302 18.747 30.5887 19.5591 30.5887H21.0297C21.8417 30.5887 22.5003 29.9302 22.5003 29.1181V22.5003H29.1181C29.9302 22.5003 30.5887 21.8417 30.5887 21.0297V19.5591C30.5887 18.747 29.9302 18.0884 29.1181 18.0884Z" fill="white"/>
<defs>
<linearGradient id="paint0_linear_277_4488" x1="20" y1="0" x2="20" y2="40" gradientUnits="userSpaceOnUse">
<stop stop-color="#FF4A2B"/>
<stop offset="1" stop-color="#FF426D"/>
</linearGradient>
</defs>
</svg>
