<svg width="40" height="40" viewBox="0 0 40 40" fill="none" xmlns="http://www.w3.org/2000/svg">
<rect width="40" height="40" rx="20" fill="url(#paint0_linear_277_4356)"/>
<path d="M29.7091 16.9867C27.5382 16.9867 26.6507 15.4515 27.7301 13.5684C28.3538 12.4769 27.982 11.0856 26.8906 10.462L24.8156 9.27454C23.8681 8.71083 22.6447 9.04666 22.081 9.99418L21.949 10.2221C20.8696 12.1051 19.0945 12.1051 18.003 10.2221L17.8711 9.99418C17.3313 9.04666 16.1079 8.71083 15.1604 9.27454L13.0855 10.462C11.994 11.0856 11.6222 12.4889 12.2459 13.5804C13.3373 15.4515 12.4498 16.9867 10.2789 16.9867C9.03148 16.9867 8 18.0062 8 19.2655V21.3765C8 22.6239 9.01949 23.6554 10.2789 23.6554C12.4498 23.6554 13.3373 25.1906 12.2459 27.0736C11.6222 28.1651 11.994 29.5564 13.0855 30.1801L15.1604 31.3675C16.1079 31.9312 17.3313 31.5954 17.8951 30.6479L18.027 30.42C19.1064 28.5369 20.8816 28.5369 21.973 30.42L22.1049 30.6479C22.6687 31.5954 23.8921 31.9312 24.8396 31.3675L26.9145 30.1801C28.006 29.5564 28.3778 28.1531 27.7541 27.0736C26.6627 25.1906 27.5502 23.6554 29.7211 23.6554C30.9685 23.6554 32 22.6359 32 21.3765V19.2655C31.988 18.0182 30.9685 16.9867 29.7091 16.9867ZM19.994 24.2191C17.8471 24.2191 16.096 22.4679 16.096 20.321C16.096 18.1741 17.8471 16.423 19.994 16.423C22.1409 16.423 23.8921 18.1741 23.8921 20.321C23.8921 22.4679 22.1409 24.2191 19.994 24.2191Z" fill="white"/>
<defs>
<linearGradient id="paint0_linear_277_4356" x1="20" y1="0" x2="20" y2="40" gradientUnits="userSpaceOnUse">
<stop stop-color="#FF4A2B"/>
<stop offset="1" stop-color="#FF426D"/>
</linearGradient>
</defs>
</svg>
