<svg width="301" height="230" viewBox="0 0 301 230" fill="none" xmlns="http://www.w3.org/2000/svg">
<rect width="301" height="230" rx="20" fill="url(#paint0_linear_680_3187)"/>
<path d="M150.636 107.229C160.434 107.229 168.377 99.3648 168.377 89.6638C168.377 79.9628 160.434 72.0986 150.636 72.0986C140.838 72.0986 132.895 79.9628 132.895 89.6638C132.895 99.3648 140.838 107.229 150.636 107.229Z" fill="white"/>
<path d="M123.725 91.4199H125.514C125.514 90.8593 125.514 90.3735 125.514 89.8129C125.525 85.1398 126.84 80.563 129.31 76.6003C131.78 72.6375 135.306 69.4468 139.491 67.3893C138.252 64.5287 136.264 62.0578 133.737 60.2393C131.21 58.4207 128.239 57.3224 125.14 57.0608C122.041 56.7993 118.929 57.3843 116.134 58.7539C113.34 60.1234 110.968 62.2262 109.27 64.839C107.572 67.4518 106.611 70.477 106.49 73.5934C106.368 76.7097 107.091 79.8007 108.581 82.5382C110.071 85.2757 112.273 87.5574 114.953 89.1409C117.632 90.7245 120.689 91.5508 123.799 91.5321L123.725 91.4199Z" fill="white"/>
<path d="M175.83 89.6636V91.2706H177.619C180.687 91.2397 183.691 90.3799 186.314 88.7816C188.936 87.1833 191.08 84.9056 192.521 82.1883C193.961 79.471 194.644 76.4147 194.498 73.3409C194.352 70.2671 193.383 67.2896 191.691 64.7219C190 62.1541 187.65 60.0909 184.888 58.7496C182.126 57.4083 179.054 56.8385 175.996 57.1C172.939 57.3616 170.008 58.4449 167.512 60.2359C165.016 62.0269 163.049 64.4594 161.815 67.2773C166.001 69.3268 169.532 72.5094 172.008 76.4653C174.485 80.4213 175.808 84.9929 175.83 89.6636Z" fill="white"/>
<path d="M166.624 108.985C174.035 110.456 181.2 112.973 187.906 116.46C188.851 116.98 189.707 117.649 190.441 118.441H210.269V105.659C210.273 105.169 210.143 104.687 209.893 104.265C209.643 103.844 209.284 103.499 208.853 103.267C199.192 98.2007 188.446 95.571 177.545 95.6058H175.085C173.793 100.871 170.822 105.568 166.624 108.985Z" fill="white"/>
<path d="M107.884 125.69C107.877 123.808 108.384 121.96 109.35 120.346C110.316 118.732 111.704 117.414 113.363 116.534C120.069 113.047 127.234 110.53 134.645 109.06C130.467 105.672 127.498 101.016 126.184 95.7923H123.724C112.823 95.7575 102.077 98.3872 92.4164 103.454C91.9854 103.685 91.6257 104.03 91.3761 104.452C91.1265 104.873 90.9965 105.355 91.0001 105.846V129.727H107.884V125.69Z" fill="white"/>
<path d="M163.53 147.255H185.744V152.487H163.53V147.255Z" fill="white"/>
<path d="M205.834 126.961H180.229V123.224C180.229 122.233 179.836 121.282 179.137 120.582C178.438 119.881 177.49 119.487 176.502 119.487C175.513 119.487 174.565 119.881 173.866 120.582C173.167 121.282 172.774 122.233 172.774 123.224V126.961H165.544V116.385C160.64 115.352 155.646 114.814 150.635 114.778C138.871 114.729 127.276 117.578 116.867 123.075C116.403 123.316 116.015 123.681 115.746 124.129C115.476 124.578 115.335 125.092 115.339 125.616V146.582H141.839V169.342C141.839 170.333 142.232 171.284 142.931 171.985C143.63 172.686 144.578 173.079 145.566 173.079H205.834C206.823 173.079 207.771 172.686 208.47 171.985C209.169 171.284 209.561 170.333 209.561 169.342V130.699C209.561 129.708 209.169 128.757 208.47 128.056C207.771 127.355 206.823 126.961 205.834 126.961ZM202.107 165.68H149.293V134.436H172.774V137.837C172.774 138.828 173.167 139.779 173.866 140.48C174.565 141.18 175.513 141.574 176.502 141.574C177.49 141.574 178.438 141.18 179.137 140.48C179.836 139.779 180.229 138.828 180.229 137.837V134.436H202.107V165.68Z" fill="white"/>
<defs>
<linearGradient id="paint0_linear_680_3187" x1="6.5" y1="115" x2="301" y2="115" gradientUnits="userSpaceOnUse">
<stop stop-color="#FF4A2B"/>
<stop offset="1" stop-color="#FF426D"/>
</linearGradient>
</defs>
</svg>
