<svg width="301" height="230" viewBox="0 0 301 230" fill="none" xmlns="http://www.w3.org/2000/svg">
<rect width="301" height="230" rx="20" fill="url(#paint0_linear_681_3190)"/>
<path d="M203.286 62.707H97.7063C91.706 62.707 85.9514 65.0907 81.7085 69.3335C77.4657 73.5764 75.082 79.331 75.082 85.3313V145.663C75.082 151.663 77.4657 157.418 81.7085 161.661C85.9514 165.903 91.706 168.287 97.7063 168.287H203.286C209.287 168.287 215.041 165.903 219.284 161.661C223.527 157.418 225.911 151.663 225.911 145.663V85.3313C225.911 79.331 223.527 73.5764 219.284 69.3335C215.041 65.0907 209.287 62.707 203.286 62.707ZM142.955 138.121H112.789C110.789 138.121 108.871 137.327 107.457 135.912C106.042 134.498 105.248 132.58 105.248 130.58C105.248 128.58 106.042 126.662 107.457 125.247C108.871 123.833 110.789 123.038 112.789 123.038H142.955C144.955 123.038 146.873 123.833 148.287 125.247C149.702 126.662 150.496 128.58 150.496 130.58C150.496 132.58 149.702 134.498 148.287 135.912C146.873 137.327 144.955 138.121 142.955 138.121ZM188.203 138.121H173.121C171.12 138.121 169.202 137.327 167.788 135.912C166.374 134.498 165.579 132.58 165.579 130.58C165.579 128.58 166.374 126.662 167.788 125.247C169.202 123.833 171.12 123.038 173.121 123.038H188.203C190.204 123.038 192.122 123.833 193.536 125.247C194.95 126.662 195.745 128.58 195.745 130.58C195.745 132.58 194.95 134.498 193.536 135.912C192.122 137.327 190.204 138.121 188.203 138.121ZM210.828 92.8727H90.1649V85.3313C90.1649 83.3312 90.9594 81.413 92.3737 79.9987C93.788 78.5844 95.7062 77.7899 97.7063 77.7899H203.286C205.286 77.7899 207.205 78.5844 208.619 79.9987C210.033 81.413 210.828 83.3312 210.828 85.3313V92.8727Z" fill="white"/>
<defs>
<linearGradient id="paint0_linear_681_3190" x1="6.5" y1="115" x2="301" y2="115" gradientUnits="userSpaceOnUse">
<stop stop-color="#FF4A2B"/>
<stop offset="1" stop-color="#FF426D"/>
</linearGradient>
</defs>
</svg>
