<svg width="37" height="38" viewBox="0 0 37 38" fill="none" xmlns="http://www.w3.org/2000/svg">
<path d="M22.208 17.8502L11.987 20.4045C11.8696 20.4309 11.7586 20.4806 11.6607 20.5505C11.5627 20.6204 11.4797 20.7092 11.4165 20.8117C11.3533 20.9141 11.3113 21.0282 11.2928 21.1472C11.2743 21.2661 11.2798 21.3875 11.309 21.5043C11.3381 21.6211 11.3903 21.7309 11.4625 21.8273C11.5346 21.9236 11.6253 22.0045 11.7292 22.0653C11.8331 22.1261 11.9481 22.1655 12.0675 22.1812C12.1868 22.1969 12.3081 22.1886 12.4242 22.1568L22.6452 19.6024C22.8727 19.54 23.0668 19.3911 23.1859 19.1874C23.3051 18.9838 23.3398 18.7416 23.2827 18.5127C23.2256 18.2838 23.0811 18.0863 22.8803 17.9625C22.6795 17.8387 22.4382 17.7984 22.208 17.8502Z" fill="#FF4A2B"/>
<path d="M18.5934 17.6029C19.1291 17.6027 19.6528 17.4438 20.0983 17.1462C20.5437 16.8485 20.8909 16.4255 21.096 15.9306C21.3012 15.4357 21.355 14.8911 21.2507 14.3656C21.1464 13.8401 20.8886 13.3574 20.51 12.9783C19.9938 12.4852 19.3073 12.21 18.5934 12.21C17.8795 12.21 17.193 12.4852 16.6767 12.9783C16.2982 13.3574 16.0404 13.8401 15.9361 14.3656C15.8318 14.8911 15.8856 15.4357 16.0908 15.9306C16.2959 16.4255 16.6431 16.8485 17.0885 17.1462C17.534 17.4438 18.0577 17.6027 18.5934 17.6029ZM17.9557 14.2555C18.082 14.1291 18.243 14.0431 18.4182 14.0082C18.5934 13.9733 18.775 13.9912 18.9401 14.0596C19.1051 14.1279 19.2462 14.2437 19.3455 14.3922C19.4447 14.5408 19.4977 14.7154 19.4977 14.8941C19.4977 15.0727 19.4447 15.2474 19.3455 15.3959C19.2462 15.5444 19.1051 15.6602 18.9401 15.7286C18.775 15.7969 18.5934 15.8148 18.4182 15.7799C18.243 15.745 18.082 15.659 17.9557 15.5327C17.7864 15.3633 17.6913 15.1336 17.6913 14.8941C17.6913 14.6546 17.7864 14.4249 17.9557 14.2555Z" fill="#FF4A2B"/>
<path d="M14.1223 23.1976C13.7435 23.5766 13.4856 24.0594 13.3812 24.585C13.2768 25.1106 13.3305 25.6553 13.5357 26.1504C13.7408 26.6454 14.0881 27.0685 14.5337 27.3662C14.9792 27.6638 15.5031 27.8227 16.0389 27.8227C16.5748 27.8227 17.0986 27.6638 17.5442 27.3662C17.9897 27.0685 18.337 26.6454 18.5422 26.1504C18.7473 25.6553 18.8011 25.1106 18.6967 24.585C18.5923 24.0594 18.3344 23.5766 17.9556 23.1976C17.7039 22.9458 17.4051 22.746 17.0763 22.6097C16.7474 22.4735 16.3949 22.4033 16.0389 22.4033C15.6829 22.4033 15.3304 22.4735 15.0016 22.6097C14.6727 22.746 14.3739 22.9458 14.1223 23.1976ZM16.6766 25.7519C16.505 25.917 16.2761 26.0091 16.038 26.0091C15.7999 26.0091 15.5711 25.917 15.3994 25.7519C15.2734 25.6255 15.1877 25.4646 15.153 25.2895C15.1184 25.1143 15.1364 24.9329 15.2049 24.768C15.2733 24.6032 15.389 24.4623 15.5375 24.3631C15.6859 24.264 15.8604 24.211 16.0389 24.211C16.1574 24.2104 16.2748 24.2335 16.3843 24.2787C16.4938 24.324 16.5931 24.3907 16.6766 24.4748C16.8459 24.6441 16.9411 24.8738 16.9411 25.1133C16.9411 25.3528 16.8459 25.5825 16.6766 25.7519Z" fill="#FF4A2B"/>
<path d="M36.9958 4.36171C37.0311 3.27421 36.6711 2.21076 35.9823 1.3684C35.5669 0.90887 35.0539 0.548061 34.481 0.312388C33.908 0.0767158 33.2897 -0.0278548 32.6711 0.00633131C31.9863 -0.0191127 31.3045 0.108055 30.6749 0.378625C30.0454 0.649194 29.4839 1.05639 29.0311 1.57073C28.4952 2.20816 28.095 2.94826 27.8551 3.74571H16.4129C16.2942 3.7455 16.1767 3.76868 16.0669 3.81394C15.9572 3.85919 15.8575 3.92563 15.7734 4.00945L0.794265 18.9904C0.542463 19.2421 0.342713 19.5409 0.206429 19.8697C0.0701459 20.1986 0 20.5511 0 20.9071C0 21.2631 0.0701459 21.6156 0.206429 21.9445C0.342713 22.2733 0.542463 22.5721 0.794265 22.8238L14.4963 36.5258C14.7479 36.7776 15.0467 36.9773 15.3756 37.1136C15.7044 37.2499 16.0569 37.32 16.4129 37.32C16.7689 37.32 17.1214 37.2499 17.4503 37.1136C17.7792 36.9773 18.078 36.7776 18.3296 36.5258L33.3106 21.5466C33.3944 21.4625 33.4608 21.3628 33.5061 21.2531C33.5514 21.1434 33.5745 21.0258 33.5743 20.9071V9.76484C34.6249 9.31692 35.5146 8.56042 36.1256 7.59554C36.7366 6.63065 37.04 5.50292 36.9958 4.36171ZM31.7679 20.5332L17.0524 35.2486C16.9685 35.3327 16.8688 35.3995 16.7591 35.445C16.6494 35.4905 16.5317 35.514 16.4129 35.514C16.2941 35.514 16.1765 35.4905 16.0668 35.445C15.957 35.3995 15.8574 35.3327 15.7734 35.2486L2.07143 21.5466C1.98732 21.4627 1.92058 21.363 1.87505 21.2533C1.82951 21.1435 1.80608 21.0259 1.80608 20.9071C1.80608 20.7883 1.82951 20.6707 1.87505 20.5609C1.92058 20.4512 1.98732 20.3515 2.07143 20.2676L16.7869 5.55217H27.4576C27.3071 6.73254 27.2986 7.9267 27.4324 9.10909C27.4449 9.22915 27.4813 9.34548 27.5396 9.45121C27.5978 9.55694 27.6766 9.64992 27.7714 9.72466C27.8662 9.79941 27.975 9.85439 28.0914 9.88637C28.2078 9.91836 28.3294 9.92668 28.4491 9.91086C28.5687 9.89505 28.684 9.8554 28.7881 9.79428C28.8922 9.73315 28.983 9.65178 29.0551 9.55498C29.1272 9.45817 29.1792 9.3479 29.2079 9.23067C29.2367 9.11344 29.2417 8.99163 29.2226 8.87245C29.1033 7.76726 29.127 6.65131 29.293 5.55217H30.8646C31.1042 5.55217 31.3339 5.64733 31.5033 5.81672C31.6727 5.98611 31.7679 6.21585 31.7679 6.4554V20.5332ZM33.5743 7.79399V6.4554C33.5743 5.73675 33.2888 5.04752 32.7807 4.53936C32.2725 4.03119 31.5833 3.74571 30.8646 3.74571H29.8006C29.9473 3.38896 30.1471 3.05642 30.3931 2.75938C30.6776 2.44087 31.03 2.19041 31.4243 2.02656C31.8186 1.8627 32.2447 1.78964 32.6711 1.81279C33.0292 1.78474 33.3891 1.83609 33.7251 1.96318C34.0611 2.09027 34.3649 2.28997 34.6148 2.54802C35.0109 3.06486 35.2141 3.70379 35.1893 4.35449C35.2008 5.01308 35.0612 5.66556 34.7813 6.26181C34.5013 6.85805 34.0884 7.3822 33.5743 7.79399Z" fill="#FF4A2B"/>
</svg>
