<svg width="301" height="230" viewBox="0 0 301 230" fill="none" xmlns="http://www.w3.org/2000/svg">
<rect width="301" height="230" rx="20" fill="url(#paint0_linear_789_3187)"/>
<path d="M226 139H222V111.975C222 108.8 220.725 105.75 218.475 103.5L193.5 78.525C191.25 76.275 188.2 75 185.025 75H174V63C174 56.375 168.625 51 162 51H98C91.375 51 86 56.375 86 63V75H72C70.9 75 70 75.9 70 77V81C70 82.1 70.9 83 72 83H140C141.1 83 142 83.9 142 85V89C142 90.1 141.1 91 140 91H80C78.9 91 78 91.9 78 93V97C78 98.1 78.9 99 80 99H132C133.1 99 134 99.9 134 101V105C134 106.1 133.1 107 132 107H72C70.9 107 70 107.9 70 109V113C70 114.1 70.9 115 72 115H124C125.1 115 126 115.9 126 117V121C126 122.1 125.1 123 124 123H86V155C86 168.25 96.75 179 110 179C123.25 179 134 168.25 134 155H166C166 168.25 176.75 179 190 179C203.25 179 214 168.25 214 155H226C228.2 155 230 153.2 230 151V143C230 140.8 228.2 139 226 139ZM110 167C103.375 167 98 161.625 98 155C98 148.375 103.375 143 110 143C116.625 143 122 148.375 122 155C122 161.625 116.625 167 110 167ZM190 167C183.375 167 178 161.625 178 155C178 148.375 183.375 143 190 143C196.625 143 202 148.375 202 155C202 161.625 196.625 167 190 167ZM210 115H174V87H185.025L210 111.975V115Z" fill="white"/>
<defs>
<linearGradient id="paint0_linear_789_3187" x1="6.5" y1="115" x2="301" y2="115" gradientUnits="userSpaceOnUse">
<stop stop-color="#FF4A2B"/>
<stop offset="1" stop-color="#FF426D"/>
</linearGradient>
</defs>
</svg>
