<svg width="133" height="36" viewBox="0 0 133 36" fill="none" xmlns="http://www.w3.org/2000/svg">
<path d="M0.13803 24.7392C0.13803 22.9529 0.104372 21.4526 0 20.114H3.63976L3.81246 22.4133H3.91411C4.73719 21.1995 6.24769 19.7617 9.06369 19.7617C11.262 19.7617 12.9771 20.913 13.6972 22.6332H13.7676C14.351 21.7723 15.0357 21.1344 15.8251 20.6893C16.7522 20.0833 17.819 19.7617 19.1898 19.7617C21.9711 19.7617 24.7844 21.5161 24.7844 26.4964V35.6495H20.6656V27.0682C20.6656 24.4864 19.7049 22.9529 17.679 22.9529C16.2378 22.9529 15.1723 23.9108 14.727 25.028C14.624 25.4074 14.5209 25.8889 14.5209 26.3331V35.6498H10.4011V26.6512C10.4011 24.4864 9.4754 22.9529 7.51681 22.9529C5.9407 22.9529 4.87658 24.102 4.49547 25.1856C4.32514 25.5679 4.25579 26.0159 4.25579 26.4607V35.6498H0.13803V24.7392Z" fill="#003D79"/>
<path d="M40.8324 31.9178C40.8324 33.3199 40.9004 34.6904 41.0707 35.6495H37.2599L36.9863 33.928H36.8822C35.8514 35.1415 34.1009 35.9996 31.9421 35.9996C28.5763 35.9996 26.6885 33.7372 26.6885 31.375C26.6885 27.4489 30.4268 25.474 36.6099 25.5053V25.2504C36.6099 24.2293 36.1618 22.5381 33.2092 22.5381C31.5603 22.5381 29.8451 23.0177 28.7127 23.6862L27.8893 21.1344C29.1251 20.4315 31.2876 19.7617 33.9296 19.7617C39.2869 19.7617 40.8327 22.9226 40.8327 26.3015V31.9178H40.8324ZM36.7116 28.0593C33.7239 27.9945 30.8763 28.5999 30.8763 30.9605C30.8763 32.4915 31.9424 33.1944 33.2795 33.1944C34.9587 33.1944 36.1969 32.1705 36.5739 31.055C36.6755 30.7668 36.7112 30.4503 36.7112 30.1947V28.0593H36.7116Z" fill="#003D79"/>
<path d="M43.7495 24.7389C43.7495 22.9526 43.7138 21.4523 43.6152 20.1137H47.3192L47.5246 22.4455H47.6293C48.3494 21.2314 50.1696 19.7617 52.9496 19.7617C55.8686 19.7617 58.8875 21.5161 58.8875 26.4313V35.6495H54.6664V26.879C54.6664 24.6444 53.7719 22.9523 51.4734 22.9523C49.7932 22.9523 48.623 24.0691 48.1787 25.2504C48.042 25.6007 48.007 26.0794 48.007 26.5242V35.6495H43.7502V24.7389H43.7495Z" fill="#003D79"/>
<path d="M77.1918 13.873V31.2783C77.1918 32.8728 77.2629 34.5974 77.3295 35.6491H73.5558L73.3838 33.1941H73.3138C72.3183 34.9159 70.2924 35.9989 67.8568 35.9989C63.8734 35.9989 60.7181 32.8415 60.7181 28.0589C60.6813 22.8575 64.1821 19.761 68.1992 19.761C70.4981 19.761 72.1466 20.6545 72.9014 21.8073H72.9714V13.873H77.1918ZM72.9717 26.5886C72.9717 26.2714 72.9374 25.8882 72.867 25.5675C72.49 24.0397 71.1532 22.7943 69.2296 22.7943C66.5177 22.7943 65.0055 25.0276 65.0055 27.9303C65.0055 30.7671 66.5177 32.8421 69.1967 32.8421C70.9095 32.8421 72.4217 31.7569 72.8327 30.0657C72.9374 29.716 72.9714 29.3315 72.9714 28.9176V26.5886H72.9717Z" fill="#003D79"/>
<path d="M80.1777 35.6491V20.1133H84.4366V35.6491H80.1777Z" fill="#003D79"/>
<path d="M87.4201 25.1237C87.4201 23.018 87.3858 21.5164 87.2852 20.1143H90.9586L91.0932 23.078H91.2329C92.057 20.8801 94.0115 20.1143 95.8008 20.1143C96.2101 20.1143 96.4508 20.0505 96.7922 20.1143V23.5611C96.4508 23.4966 96.0745 23.4335 95.5588 23.4335C93.5312 23.4335 92.158 24.645 91.7816 26.3972C91.7153 26.7491 91.645 27.1659 91.645 27.6129V35.6502H87.4208V25.1237H87.4201Z" fill="#003D79"/>
<path d="M98.751 35.6491V20.1133H103.005V35.6491H98.751Z" fill="#003D79"/>
<path d="M129.5 3.68448C127.393 1.45118 125.153 2.46152 123.373 3.28357C122.625 3.62698 117.219 6.47509 117.219 6.47509C114.257 7.60991 111.951 6.37147 111.045 5.32921C110.952 5.21927 110.871 5.11628 110.81 5.0155L110.601 4.67619C110.277 4.16817 109.889 3.59318 109.413 3.02672C109.158 2.71932 108.874 2.41223 108.56 2.12189C106.535 0.21968 103.296 -1.1107 97.8819 1.30711C95.3199 2.68741 86.9694 7.12085 86.9694 7.12085C83.8335 8.3217 81.432 6.85895 80.6538 5.78668C80.6191 5.74624 80.5851 5.69791 80.5626 5.65747L80.4603 5.49476L79.9306 4.69135C79.7039 4.35931 79.453 4.01779 79.164 3.66742C78.9066 3.3616 78.62 3.05705 78.3093 2.76386C76.2963 0.873971 73.0754 -0.453883 67.7099 1.9178C64.4649 3.63899 56.9188 7.6494 56.9188 7.6494C56.9171 7.65162 56.9171 7.65162 56.9165 7.65162C53.8111 9.30109 51.3926 10.5841 51.3926 10.5841L54.2504 13.8451C55.4525 14.9101 57.7137 16.6566 61.211 15.184C61.211 15.184 70.8632 9.98981 70.9006 9.97496C79.1528 5.76646 83.226 9.78762 85.0245 12.4677C85.0874 12.5514 85.139 12.6424 85.1941 12.7239L85.1989 12.7277C85.2199 12.7602 85.2352 12.7905 85.2536 12.8212L85.4586 13.1311C86.3337 14.3667 87.7191 15.1647 89.3673 15.1281C90.2767 15.111 90.8938 14.8349 91.7926 14.3714L101.131 9.33773C101.137 9.33489 101.142 9.33205 101.151 9.32984C109.506 5.07047 113.647 9.35479 115.415 12.0348C115.553 12.2667 115.71 12.4876 115.869 12.6939C116.744 13.7974 117.953 14.5199 119.486 14.4852C120.499 14.4659 121.635 13.901 121.803 13.7974L133 7.79284C133 7.79284 131.855 6.18728 129.5 3.68448Z" fill="url(#paint0_linear_153_6175)"/>
<defs>
<linearGradient id="paint0_linear_153_6175" x1="58.2328" y1="23.5451" x2="143.059" y2="-18.6109" gradientUnits="userSpaceOnUse">
<stop stop-color="#FDB913"/>
<stop offset="0.2247" stop-color="#FFCB05"/>
<stop offset="0.3933" stop-color="#FAA61A"/>
<stop offset="0.5281" stop-color="#FFCB05"/>
<stop offset="0.6461" stop-color="#FAA61A"/>
<stop offset="0.6683" stop-color="#FCB415"/>
<stop offset="0.6975" stop-color="#FFC10E"/>
<stop offset="0.7285" stop-color="#FFC907"/>
<stop offset="0.764" stop-color="#FFCB05"/>
<stop offset="0.7974" stop-color="#FFCB05"/>
<stop offset="1" stop-color="#FFCB05"/>
</linearGradient>
</defs>
</svg>
