<svg width="40" height="40" viewBox="0 0 40 40" fill="none" xmlns="http://www.w3.org/2000/svg">
<rect width="40" height="40" rx="20" fill="url(#paint0_linear_277_4545)"/>
<path d="M18.5563 9C16.9877 9 15.7042 10.2835 15.7042 11.8521H12.8521C11.2835 11.8521 10 13.1356 10 14.7042H29.9648C29.9648 13.1356 28.6813 11.8521 27.1127 11.8521H24.2606C24.2606 10.2835 22.9771 9 21.4085 9H18.5563ZM12.8521 17.5563V31.275C12.8521 31.5887 13.0803 31.8169 13.394 31.8169H26.5993C26.913 31.8169 27.1412 31.5887 27.1412 31.275V17.5563H24.2891V27.5387C24.2891 28.3373 23.6616 28.9648 22.863 28.9648C22.0644 28.9648 21.437 28.3373 21.437 27.5387V17.5563H18.5849V27.5387C18.5849 28.3373 17.9574 28.9648 17.1588 28.9648C16.3602 28.9648 15.7327 28.3373 15.7327 27.5387V17.5563H12.8806H12.8521Z" fill="white"/>
<defs>
<linearGradient id="paint0_linear_277_4545" x1="20" y1="0" x2="20" y2="40" gradientUnits="userSpaceOnUse">
<stop stop-color="#FF4A2B"/>
<stop offset="1" stop-color="#FF426D"/>
</linearGradient>
</defs>
</svg>
