<svg width="120" height="26" viewBox="0 0 120 26" fill="none" xmlns="http://www.w3.org/2000/svg">
<path fill-rule="evenodd" clip-rule="evenodd" d="M13.8322 26C21.4518 26 27.6645 20.1594 27.6645 13C27.6645 5.84058 21.4518 0 13.8322 0C6.21263 0 0 5.84058 0 13C0 20.1612 6.21448 26 13.8322 26Z" fill="#00ADD9"/>
<path fill-rule="evenodd" clip-rule="evenodd" d="M5.85996 15.9181C6.03444 18.0482 7.4507 19.6862 10.0642 19.8014C12.5775 19.913 15.0889 19.9497 17.6003 19.8014C19.9075 19.6671 21.63 18.0482 21.8045 15.9181C21.8955 14.8261 21.9326 13.734 21.9215 12.6437C21.3405 9.69725 18.7103 9.59258 18.4634 9.58909H18.456H18.4486H18.4467H9.60572C9.29574 9.58909 9.04145 9.3501 9.04145 9.05876C9.04145 8.76569 9.29389 8.52844 9.60572 8.52844H18.4745C18.3929 6.55367 16.0708 6.18383 14.9645 6.12103L14.3909 6.10882H14.3891C12.945 6.08963 11.5046 6.12103 10.0642 6.22744C7.39873 6.42283 6.03444 7.98067 5.85996 10.1107C5.70033 12.0471 5.70033 13.9817 5.85996 15.9181ZM19.1669 14.7982V15.5047C19.1669 15.7681 18.9367 15.9844 18.6564 15.9844C18.3762 15.9844 18.146 15.7681 18.146 15.5047V14.7964C17.9214 14.6551 17.7748 14.4214 17.7748 14.1597C17.7748 13.727 18.1701 13.3781 18.6564 13.3781C19.1428 13.3781 19.5381 13.7288 19.5381 14.1597C19.5381 14.4231 19.3915 14.6551 19.1669 14.7982Z" fill="white"/>
<path fill-rule="evenodd" clip-rule="evenodd" d="M97.4451 11.8228L97.4376 14.1709C97.4376 14.1709 96.5838 15.748 93.6343 16.1352C90.6849 16.5208 90.683 14.7955 90.8965 14.3506C91.1099 13.904 91.8041 13.29 94.245 12.9149C96.8492 12.5137 97.4451 11.8228 97.4451 11.8228ZM100.92 9.56198C100.92 5.92993 97.2038 4.23777 93.8775 4.53782C90.7814 4.81869 88.1809 6.17591 87.3809 9.21308L90.5865 9.95449C91.6 7.23307 95.3958 6.43584 97.0033 8.38095C97.4339 8.90953 97.2539 9.4608 96.6209 9.76783C95.678 10.2249 93.8775 10.0923 92.0417 10.5651C84.2792 12.566 86.7219 19.237 93.1536 19.066C95.2121 19.0119 96.6952 18.1275 97.7012 17.243L97.7346 18.7293H100.918V9.56198H100.92ZM40.1671 7.90645C37.8339 7.90645 35.9388 9.69281 35.9388 11.8996C35.9388 14.1047 37.8321 15.8928 40.1671 15.8928C42.5041 15.8928 44.3974 14.1064 44.3974 11.8996C44.3974 9.69281 42.5041 7.90645 40.1671 7.90645ZM48.4531 4.96697V16.3725V18.4519C48.4531 23.1691 44.9598 26.0004 40.5198 26.0004C37.5035 26.0004 35.2965 25.334 33.1545 23.1324L35.7866 20.9082C37.0581 22.316 38.5875 22.6562 40.4641 22.6562C42.7194 22.6562 44.3955 20.9501 44.3955 18.8584V17.475C43.0906 18.5444 41.3996 19.1899 39.5528 19.1899C35.4228 19.1899 32.0742 15.9625 32.0742 11.9816C32.0742 8.00065 35.4228 4.77333 39.5528 4.77333C41.3996 4.77333 43.0906 5.41879 44.3955 6.48817V4.96697H48.4531ZM119.999 4.74193L115.652 4.73495L111.355 13.59L106.399 4.73321H102.039L109.198 17.3512L105.415 24.6746H109.776L119.999 4.74193ZM77.5357 7.90645C79.8689 7.90645 81.7622 9.69281 81.7622 11.8996C81.7622 14.1047 79.8689 15.8928 77.5357 15.8928C75.1988 15.8928 73.3055 14.1064 73.3055 11.8996C73.3055 9.69281 75.1988 7.90645 77.5357 7.90645ZM69.2497 4.96697H73.3073V6.49166C74.6122 5.42228 76.3032 4.77682 78.1501 4.77682C82.2801 4.77682 85.6286 8.00414 85.6286 11.9851C85.6286 15.966 82.2782 19.1934 78.1501 19.1934C76.3032 19.1934 74.6122 18.5479 73.3073 17.4785V24.6763H69.2497V4.96697ZM58.4319 7.79655C60.9749 7.79655 63.0371 9.67188 63.0371 11.9851C63.0371 14.3 60.9767 16.1754 58.4319 16.1754C55.889 16.1754 53.8286 14.3 53.8286 11.9851C53.8268 9.67188 55.8871 7.79655 58.4319 7.79655ZM58.4319 4.51165C53.8954 4.51165 50.2165 7.85935 50.2165 11.9868C50.2165 16.1161 53.8936 19.462 58.4319 19.462C62.9703 19.462 66.6474 16.1161 66.6474 11.9868C66.6455 7.8576 62.9684 4.51165 58.4319 4.51165Z" fill="black"/>
</svg>
