<svg width="301" height="230" viewBox="0 0 301 230" fill="none" xmlns="http://www.w3.org/2000/svg">
<rect width="301" height="230" rx="20" fill="url(#paint0_linear_681_3197)"/>
<path d="M147.418 85.6729L97.1687 127.059V171.727C97.1687 172.884 97.6282 173.993 98.446 174.811C99.2638 175.629 100.373 176.088 101.53 176.088L132.071 176.009C133.224 176.003 134.328 175.541 135.141 174.724C135.954 173.907 136.41 172.801 136.41 171.648V145.563C136.41 144.406 136.87 143.297 137.687 142.479C138.505 141.661 139.614 141.202 140.771 141.202H158.214C159.371 141.202 160.48 141.661 161.298 142.479C162.115 143.297 162.575 144.406 162.575 145.563V171.629C162.573 172.203 162.685 172.772 162.903 173.302C163.121 173.833 163.442 174.315 163.847 174.722C164.252 175.128 164.734 175.45 165.264 175.67C165.794 175.89 166.362 176.004 166.936 176.004L197.467 176.088C198.623 176.088 199.732 175.629 200.55 174.811C201.368 173.993 201.827 172.884 201.827 171.727V127.029L151.588 85.6729C150.998 85.1968 150.262 84.9372 149.503 84.9372C148.745 84.9372 148.009 85.1968 147.418 85.6729ZM226.793 113.803L204.008 95.0213V57.2706C204.008 56.4032 203.663 55.5713 203.05 54.9579C202.436 54.3446 201.605 54 200.737 54H185.474C184.607 54 183.775 54.3446 183.162 54.9579C182.548 55.5713 182.204 56.4032 182.204 57.2706V77.0603L157.803 56.9844C155.461 55.0574 152.522 54.0039 149.49 54.0039C146.457 54.0039 143.519 55.0574 141.177 56.9844L72.1869 113.803C71.8558 114.076 71.5818 114.413 71.3806 114.792C71.1794 115.172 71.0551 115.588 71.0146 116.015C70.9741 116.443 71.0182 116.875 71.1446 117.285C71.2709 117.696 71.4769 118.078 71.7509 118.409L78.7009 126.858C78.974 127.19 79.31 127.465 79.6897 127.667C80.0693 127.869 80.485 127.994 80.9131 128.036C81.3412 128.077 81.7732 128.033 82.1845 127.907C82.5957 127.782 82.978 127.576 83.3096 127.302L147.418 74.4984C148.009 74.0223 148.745 73.7627 149.503 73.7627C150.262 73.7627 150.998 74.0223 151.588 74.4984L215.7 127.302C216.031 127.576 216.413 127.782 216.823 127.908C217.234 128.035 217.666 128.079 218.093 128.038C218.521 127.998 218.937 127.873 219.316 127.672C219.696 127.471 220.032 127.197 220.306 126.866L227.256 118.417C227.53 118.084 227.735 117.7 227.86 117.288C227.985 116.875 228.027 116.442 227.984 116.013C227.941 115.585 227.813 115.169 227.609 114.789C227.404 114.41 227.127 114.074 226.793 113.803Z" fill="white"/>
<defs>
<linearGradient id="paint0_linear_681_3197" x1="6.5" y1="115" x2="301" y2="115" gradientUnits="userSpaceOnUse">
<stop stop-color="#FF4A2B"/>
<stop offset="1" stop-color="#FF426D"/>
</linearGradient>
</defs>
</svg>
