<svg width="301" height="230" viewBox="0 0 301 230" fill="none" xmlns="http://www.w3.org/2000/svg">
<rect width="301" height="230" rx="20" fill="url(#paint0_linear_767_3187)"/>
<path d="M90 72.9C90 69.7439 91.2537 66.7171 93.4854 64.4854C95.7171 62.2537 98.7439 61 101.9 61H197.1C200.256 61 203.283 62.2537 205.515 64.4854C207.746 66.7171 209 69.7439 209 72.9V84.8C209 86.9089 208.44 88.98 207.377 90.8012C206.314 92.6224 204.785 94.1284 202.949 95.1649C203.014 95.6647 203.05 96.1764 203.05 96.7V156.2C203.05 159.356 201.796 162.383 199.565 164.615C197.333 166.846 194.306 168.1 191.15 168.1H107.85C104.694 168.1 101.667 166.846 99.4354 164.615C97.2037 162.383 95.95 159.356 95.95 156.2V96.7C95.95 96.1824 95.9857 95.6647 96.0511 95.1649C94.2146 94.1284 92.6864 92.6224 91.6232 90.8012C90.5599 88.98 89.9997 86.9089 90 84.8V72.9ZM197.1 84.8V72.9H101.9V84.8H197.1ZM107.85 96.7V156.2H191.15V96.7H107.85ZM125.7 114.55C125.7 112.972 126.327 111.459 127.443 110.343C128.559 109.227 130.072 108.6 131.65 108.6H167.35C168.928 108.6 170.441 109.227 171.557 110.343C172.673 111.459 173.3 112.972 173.3 114.55C173.3 116.128 172.673 117.641 171.557 118.757C170.441 119.873 168.928 120.5 167.35 120.5H131.65C130.072 120.5 128.559 119.873 127.443 118.757C126.327 117.641 125.7 116.128 125.7 114.55Z" fill="white"/>
<defs>
<linearGradient id="paint0_linear_767_3187" x1="6.5" y1="115" x2="301" y2="115" gradientUnits="userSpaceOnUse">
<stop stop-color="#FF4A2B"/>
<stop offset="1" stop-color="#FF426D"/>
</linearGradient>
</defs>
</svg>
